<svg width="540" height="500" viewBox="0 0 540 500" fill="none" xmlns="http://www.w3.org/2000/svg">
<path d="M205.989 300.777L218.294 277.535V404H205.989V300.777ZM230.599 253.609L242.903 230.367V404H230.599V253.609ZM255.208 207.125L267.513 183.712V404H255.208V207.125ZM172.664 294.967L165.657 282.149L250.423 120.992H264.266L172.664 294.967ZM158.479 268.136L151.302 255.147L222.396 120.992H236.409L158.479 268.136ZM76.1064 278.902L88.4111 302.145V404H76.1064V278.902ZM51.4971 232.076L63.8018 255.318V404H51.4971V232.076ZM26.8877 185.25L39.1924 208.663V404H26.8877V185.25ZM126.351 330.172H112.508L14.583 144.405V404H2.27832V120.992H16.1211L126.351 330.172ZM154.207 330.172H140.193L30.1348 120.992H44.1484L154.207 330.172ZM279.817 144.405L181.893 330.172H167.879L57.9912 120.992H71.834L175.057 317.184L278.108 120.992H292.122V404H279.817V144.405ZM438.924 231.734H418.245C409.472 231.734 403.149 229.513 399.275 225.069C395.402 220.512 393.465 214.531 393.465 207.125C393.465 190.719 405.713 182.516 430.208 182.516C453.222 182.516 470.54 185.934 482.161 192.77L472.249 200.289C464.274 196.643 450.26 194.82 430.208 194.82C420.41 194.82 413.802 195.903 410.384 198.067C407.08 200.232 405.428 203.251 405.428 207.125C405.428 210.999 406.339 214.018 408.162 216.183C409.985 218.347 413.346 219.43 418.245 219.43H439.437C454.817 219.43 468.66 222.05 480.965 227.291C493.383 232.532 503.58 239.71 511.556 248.824C519.531 257.825 525.626 268.25 529.842 280.099C534.057 291.834 536.165 304.423 536.165 317.867C536.165 328.805 534.627 339.173 531.551 348.971C528.475 358.769 523.803 367.77 517.537 375.973C511.385 384.176 503.922 391.297 495.149 397.335C486.491 403.259 476.123 407.874 464.046 411.178C452.083 414.596 439.095 416.305 425.081 416.305C403.092 416.305 382.47 412.944 363.216 406.222C344.075 399.614 328.125 390.328 315.364 378.365L325.276 371.017C336.897 381.498 351.424 389.645 368.855 395.455C386.401 401.152 405.143 404 425.081 404C440.69 404 454.76 401.778 467.293 397.335C479.939 392.778 490.307 386.568 498.396 378.707C506.6 370.846 512.866 361.731 517.195 351.363C521.639 340.995 523.86 329.83 523.86 317.867C523.86 302.031 520.67 287.732 514.29 274.972C507.91 262.097 498.169 251.673 485.066 243.697C472.078 235.722 456.697 231.734 438.924 231.734ZM418.245 244.039H437.728C460.856 244.039 478.914 251.103 491.902 265.23C505.005 279.358 511.556 296.904 511.556 317.867C511.556 339.173 503.979 356.832 488.826 370.846C473.673 384.745 452.425 391.695 425.081 391.695C406.852 391.695 389.819 389.189 373.982 384.176C358.146 379.163 344.987 372.099 334.505 362.984L344.075 355.294C353.418 362.927 365.153 368.852 379.28 373.067C393.522 377.283 408.789 379.391 425.081 379.391C449.121 379.391 467.464 373.637 480.11 362.13C492.871 350.623 499.251 335.868 499.251 317.867C499.251 300.094 493.896 285.396 483.187 273.775C472.591 262.154 457.381 256.344 437.557 256.344H418.245C401.611 256.344 389.135 251.786 380.818 242.672C372.501 233.557 368.343 221.708 368.343 207.125C368.343 192.542 373.47 180.693 383.724 171.578C394.091 162.464 409.586 157.906 430.208 157.906C444.677 157.906 458.121 159.615 470.54 163.033C482.959 166.337 493.213 171.122 501.302 177.389L491.561 184.908C477.319 175.11 456.868 170.211 430.208 170.211C413.004 170.211 400.415 173.629 392.439 180.465C384.578 187.187 380.647 196.074 380.647 207.125C380.647 218.29 383.553 227.234 389.363 233.956C395.288 240.678 404.915 244.039 418.245 244.039ZM418.245 268.648H437.044C453.678 268.648 466.154 273.263 474.471 282.491C482.788 291.72 486.946 303.512 486.946 317.867C486.946 332.451 481.762 344.299 471.395 353.414C461.141 362.529 445.703 367.086 425.081 367.086C410.612 367.086 397.111 365.434 384.578 362.13C372.16 358.712 361.906 353.87 353.816 347.604L363.558 340.084C377.799 349.882 398.307 354.781 425.081 354.781C442.285 354.781 454.817 351.42 462.679 344.698C470.654 337.862 474.642 328.919 474.642 317.867C474.642 306.816 471.679 297.929 465.755 291.207C459.83 284.371 450.203 280.953 436.873 280.953H418.245C394.889 280.953 376.603 274.003 363.387 260.104C350.285 246.09 343.733 228.43 343.733 207.125C343.733 185.82 351.31 168.217 366.463 154.317C381.616 140.304 402.864 133.297 430.208 133.297C448.437 133.297 465.413 135.803 481.136 140.816C496.972 145.829 510.132 152.893 520.613 162.008L511.043 169.698C501.701 162.065 489.965 156.14 475.838 151.925C461.71 147.709 446.5 145.602 430.208 145.602C406.168 145.602 387.768 151.355 375.008 162.862C362.361 174.369 356.038 189.124 356.038 207.125C356.038 225.012 361.393 239.767 372.103 251.388C382.812 262.895 398.193 268.648 418.245 268.648ZM418.245 293.258H437.044C445.817 293.258 452.14 295.536 456.014 300.094C459.887 304.651 461.824 310.576 461.824 317.867C461.824 334.273 449.576 342.477 425.081 342.477C401.953 342.477 384.578 339.059 372.957 332.223L382.869 324.703C390.844 328.349 404.915 330.172 425.081 330.172C434.879 330.172 441.43 329.09 444.734 326.925C448.152 324.76 449.861 321.741 449.861 317.867C449.861 314.107 448.893 311.145 446.956 308.98C445.133 306.702 441.715 305.562 436.702 305.562H418.245C402.522 305.562 388.281 302.999 375.521 297.872C362.874 292.745 352.449 285.681 344.246 276.681C336.157 267.68 329.948 257.255 325.618 245.406C321.289 233.557 319.124 220.797 319.124 207.125C319.124 196.188 320.662 185.82 323.738 176.021C326.814 166.223 331.429 157.223 337.581 149.02C343.847 140.816 351.31 133.753 359.969 127.828C368.742 121.79 379.109 117.118 391.072 113.814C403.149 110.396 416.194 108.688 430.208 108.688C452.197 108.688 472.762 112.049 491.902 118.771C511.043 125.379 526.993 134.664 539.754 146.627L529.842 153.976C518.221 143.494 503.694 135.405 486.263 129.708C468.831 123.897 450.146 120.992 430.208 120.992C414.599 120.992 400.472 123.271 387.825 127.828C375.293 132.271 364.925 138.424 356.722 146.285C348.632 154.146 342.366 163.261 337.923 173.629C333.593 183.997 331.429 195.162 331.429 207.125C331.429 223.189 334.676 237.659 341.17 250.533C347.664 263.408 357.576 273.775 370.906 281.637C384.236 289.384 400.016 293.258 418.245 293.258Z" fill="#42A5F5"/>
</svg>
